/* XPM */
static char *_7124_735637e44bf63e8f87983723fb73a9b949b62d180cd0e997eec719dd0a04fb41[] = {
/* columns rows colors chars-per-pixel */
"32 32 209 2 ",
"   c #C37B1C",
".  c #BE8E26",
"X  c #D58C00",
"o  c #D1840A",
"O  c #C88015",
"+  c #CC831E",
"@  c #CE8D1F",
"#  c #D48C1D",
"$  c #DC8F18",
"%  c #DD941B",
"&  c #DF9819",
"*  c #E69F03",
"=  c #E39E0B",
"-  c #E19C1A",
";  c #E8A300",
":  c #E6A011",
">  c #E8A812",
",  c #EBAC1C",
"<  c #E9A41A",
"1  c #EFB21E",
"2  c #CC8621",
"3  c #C48C26",
"4  c #CF8C26",
"5  c #CE8D2C",
"6  c #D58C23",
"7  c #DA8E22",
"8  c #D68F2C",
"9  c #C2952C",
"0  c #CF9228",
"q  c #C5982A",
"w  c #CE9125",
"e  c #DC9324",
"r  c #D69927",
"t  c #DF9927",
"y  c #DE9628",
"u  c #D59A2A",
"i  c #DC9B2A",
"p  c #D38C38",
"a  c #D7973C",
"s  c #DD9C37",
"d  c #E59624",
"f  c #E99724",
"g  c #E09B25",
"h  c #E89D27",
"j  c #E29729",
"k  c #E29D2A",
"l  c #E99F28",
"z  c #E29F3B",
"x  c #E29B37",
"c  c #DBA32D",
"v  c #D7A634",
"b  c #DAA433",
"n  c #DCA33B",
"m  c #D6AC38",
"M  c #D8AA36",
"N  c #DDB439",
"B  c #DEB233",
"V  c #E5A225",
"C  c #E9A424",
"Z  c #ECAC26",
"A  c #E5A32C",
"S  c #ECA62C",
"D  c #E5A82D",
"F  c #EAAC2D",
"G  c #E5A825",
"H  c #F3AB2E",
"J  c #E6B02C",
"K  c #EDB42C",
"L  c #EBB125",
"P  c #F6B52F",
"I  c #F2BA2A",
"U  c #E5A633",
"Y  c #E3AB34",
"T  c #EAAC33",
"R  c #E7A73A",
"E  c #EBAD39",
"W  c #F2AE36",
"Q  c #EDB332",
"!  c #E2B837",
"~  c #EDB33B",
"^  c #E4BB3E",
"/  c #EDBC3D",
"(  c #E6B73A",
")  c #F1B633",
"_  c #F2BB35",
"`  c #F1BB3D",
"'  c #F7BB37",
"]  c #EDC23A",
"[  c #F6C337",
"{  c #F5C23A",
"}  c #FAC53B",
"|  c #F7CA3F",
" . c #FBCA3C",
".. c #FFD33F",
"X. c #CF9043",
"o. c #D69646",
"O. c #D69B4C",
"+. c #DB9F4D",
"@. c #E09F47",
"#. c #DAA344",
"$. c #DDA840",
"%. c #DFAB4A",
"&. c #DDA34C",
"*. c #DFAA54",
"=. c #DBA353",
"-. c #E3A643",
";. c #E2AA44",
":. c #E3A84C",
">. c #E3B741",
",. c #EBB543",
"<. c #EDBC43",
"1. c #E5BD4E",
"2. c #EDBC4D",
"3. c #E4B84A",
"4. c #F3BD41",
"5. c #F0BF4E",
"6. c #E4AA54",
"7. c #E9AE52",
"8. c #E5A658",
"9. c #E7AD58",
"0. c #E9AF5B",
"q. c #E9B352",
"w. c #E6BB55",
"e. c #ECBD51",
"r. c #E7BA5A",
"t. c #EEBB5D",
"y. c #EAB359",
"u. c #DFA460",
"i. c #E9AF62",
"p. c #E4A865",
"a. c #E1B360",
"s. c #EDBC6C",
"d. c #E6BB63",
"f. c #F0BE61",
"g. c #E5AE74",
"h. c #E6B477",
"j. c #E8B577",
"k. c #EBBA78",
"l. c #EEC249",
"z. c #EECB4F",
"x. c #EAC645",
"c. c #F5C443",
"v. c #F7C945",
"b. c #FBCC44",
"n. c #FACD4A",
"m. c #FED542",
"M. c #FFDC44",
"N. c #FDD34B",
"B. c #FEDA4D",
"V. c #F3D04A",
"C. c #E8C057",
"Z. c #EDC55E",
"A. c #E8CB5E",
"S. c #F1C55B",
"D. c #F8CD58",
"F. c #F1C859",
"G. c #FCD553",
"H. c #FEDB53",
"J. c #FFD75C",
"K. c #FEDC5C",
"L. c #FFE252",
"P. c #FFE35D",
"I. c #EFC160",
"U. c #EDC36D",
"Y. c #E5CA62",
"T. c #F1CA60",
"R. c #FCDC65",
"E. c #F4D16B",
"W. c #F8D465",
"Q. c #EFC170",
"!. c #ECCF7D",
"~. c #EBCF74",
"^. c #EFD579",
"/. c #F4D574",
"(. c #F7DA77",
"). c #FEDE71",
"_. c #FDDC7F",
"`. c #F6DA7A",
"'. c #FFE464",
"]. c #FEE16A",
"[. c #FFEC69",
"{. c #FDE372",
"}. c #FFEC77",
"|. c #FDE679",
" X c #EDC080",
".X c #F1CB8A",
"XX c #EFD783",
"oX c #FEDE80",
"OX c #F9E282",
"+X c #FEEA81",
"@X c #F5E38F",
"#X c #F9E78A",
"$X c #FDEC8B",
"%X c #F6E282",
"&X c #FFF683",
"*X c #FFF880",
"=X c #FFF38A",
"-X c #FFFB8D",
";X c #FCEF9F",
":X c #FFF194",
">X c #FFFF97",
",X c #FEF39B",
"<X c #FFFF9F",
"1X c #FAEFA9",
"2X c #FEF4A1",
"3X c #FFFEA3",
"4X c #FEF7A9",
"5X c #FFFFAD",
"6X c None",
/* pixels */
"6X6X6X6X6X6X6X6X6X6X6X6X6X6X6X6X6X6X6X6X6X6X6X6X6X6X6X6X6X6X6X6X",
"6X6X6X6X6X6X6X6X6X6X6X2X2X3X3X>X-X&X}.].K.6X6X6X6X6X6X6X6X6X6X6X",
"6X6X6X6X6X6X6X6X2X2X5X3X,X$X+X|.{.'.K.K.'.L.N.6X6X6X6X6X6X6X6X6X",
"6X6X6X6X6X6X6X2X5X2X2X#X+X|.{.'.K.H.N.R.S.c.n.B.c.6X6X6X6X6X6X6X",
"6X6X6X6X6X6X2X3X:X$X#X%X|.'.K.J.G.N.n.W.3.n.c.c.b.` 6X6X6X6X6X6X",
"6X6X6X6X6X3X:X$X+X|.|.Y.A.G.H.G.N.n.n.1.w.4.c.4.` ` ` 6X6X6X6X6X",
"6X6X6X6X:X=X+X|.{.].F.z.V.N.N.n.n.v.c./ R / <.~ ~ E W U 6X6X6X6X",
"6X6X6X$X=X|.{.'.H.B.m.m.n.n.v.c.c.c.4.' _ K L T E T R ) i 6X6X6X",
"6X6X6X*X].].K.J._.oX_.`.D.v.c.c.4.4._ f.U.s.s.y.D U h - H 6X6X6X",
"6X6X].|.W.H.B.G.4X4X1X1X~._ c.` ` ~ ,..XI.t.t.#.i h s 8.x 6 6X6X",
"6X6X[.).F.K.N.} XX:XOXOX^.>.` ~ ,., s.Q.L T Z w g -.u.o.2 f 6X6X",
"6XH.P.1.3.C.l.} I.@XOX(./.q.Q ~ E S  X,.T T t 4 j 8   o 7 d 2 6X",
"6XN.N.v.v.<.c.c.<.!.(.E.E.w.U T G 9.s.> A V 6 7 e 7 7 7 7 d 2 6X",
"6XN.v.v.c.c.4.4.Q d./.S.S.e.n T = j.7.: V C 2 7 6 7 7 7 7 e d 6X",
"6XN.v.c.4.4.` ~ Q ;.U.F.e.2.n g @.j.* A Z t + 7 7 e e e e y l 6X",
"6Xb.4.` ` ~ ~ E ~ D a.2.,.~ U X p.i.; F ) w # e 7 e e y i h S 6X",
"6Xb.` ~ ~ E E T U A &.q.F U A X g.E Z ) Y 2 y e e t t t k A H 6X",
"6X' ~ ~ T T U U A k s 6.G V < a j.1 ) } c # t e t g k R V D ) 6X",
"6X~ T D U R A i k i % O.U C , q.t.I { c.0 y t i k V 9.*.7.~ H 6X",
"6XR T 9.i.&.y j y y $ p :.Z Q ) _ { b.^ 6 k k A A T ;.#.#.Y D 6X",
"6Xi W O.4 @ y e 7 7 7 # =._ _ { | v.N.v t A A F F F c $.%.' c 6X",
"6X6XS $ y y 7 7 7 7 7 $ o.l.{ c.b.B.V.u D D F F T Q _ K J } 6X6X",
"6X6X8 j 7 7 7 7 7 7 7 e 8 r.m.N.M.H.N t F F Q Q Q _ _ _  .Y 6X6X",
"6X6X  f 7 7 7 7 e e e j & *.G.B.B.B.v Q Q P Q _ _ { [ } ... 6X6X",
"6X6X6X+ d 7 e e e y & g g n W.M.L.x.D ) K 4.` ] { { { ..M 6X6X6X",
"6X6X6X6Xe d e e y - 6.R A S n m m v K ` 4.2.<.[  . ... .6X6X6X6X",
"6X6X6X6X6Xh k g A 0.9.r F Q Z J Q ) ' ` 2.Z.{ |  .M.m.6X6X6X6X6X",
"6X6X6X6X6X6XA Z ;.O.n i T Q _ ~ _ { [ [ ! / N ] M. .6X6X6X6X6X6X",
"6X6X6X6X6X6X6Xu P G n c _ Q _ [ { { }  .| N m.M.N 6X6X6X6X6X6X6X",
"6X6X6X6X6X6X6X6X3 Q [ [ ' [ [  . . . .M.M.M.| . 6X6X6X6X6X6X6X6X",
"6X6X6X6X6X6X6X6X6X6X3 b _  .....M.M.M.} N 9 6X6X6X6X6X6X6X6X6X6X",
"6X6X6X6X6X6X6X6X6X6X6X6X6X6X. q q 9 6X6X6X6X6X6X6X6X6X6X6X6X6X6X"
};
