/* XPM */
static char *_0689_8e521da29219eba4daa28ce7134b23171e6bc89eb7c346de93a6431f0d3af348[] = {
/* columns rows colors chars-per-pixel */
"64 64 234 2 ",
"   c #650000",
".  c #7E3804",
"X  c #86470B",
"o  c #8E520F",
"O  c #9B6317",
"+  c #BE7E04",
"@  c #A46818",
"#  c #B36E17",
"$  c #A9731C",
"%  c #B6741B",
"&  c #BA751A",
"*  c #B6791D",
"=  c #BB7C1D",
"-  c #BB7B13",
";  c #AB7C22",
":  c #B97E21",
">  c #C27800",
",  c #C37D1C",
"<  c #C07C10",
"1  c #C47F21",
"2  c #BE8403",
"3  c #BB801E",
"4  c #BD8323",
"5  c #BF8C25",
"6  c #B78827",
"7  c #B8882B",
"8  c #C78200",
"9  c #D98B03",
"0  c #DC9508",
"q  c #CD851E",
"w  c #C78A1B",
"e  c #D48A1C",
"r  c #D8971A",
"t  c #E09600",
"y  c #E39C01",
"u  c #E39E09",
"i  c #E39D1B",
"p  c #DCAC1C",
"a  c #E9A501",
"s  c #ECAD02",
"d  c #E8A507",
"f  c #E6A314",
"g  c #E4A11C",
"h  c #EBAA1B",
"j  c #EEB21A",
"k  c #F1B81F",
"l  c #F0B200",
"z  c #C38222",
"x  c #CB8622",
"c  c #C28C24",
"v  c #CB8B24",
"b  c #CC8E29",
"n  c #D58D23",
"m  c #DA8D22",
"M  c #CB9426",
"N  c #C3922A",
"B  c #CC942A",
"V  c #C79629",
"C  c #D39326",
"Z  c #DC9324",
"A  c #DF9927",
"S  c #D49329",
"D  c #DD9529",
"F  c #D69C2D",
"G  c #DD9B2B",
"H  c #D49825",
"J  c #CA9D33",
"K  c #D49836",
"L  c #CF8C38",
"P  c #E49525",
"I  c #E29B25",
"U  c #E29D2A",
"Y  c #E89B29",
"T  c #E29D33",
"R  c #DAA32E",
"E  c #D9A32A",
"W  c #CDA537",
"Q  c #DBA532",
"!  c #D4A932",
"~  c #DBAC33",
"^  c #D4AC3A",
"/  c #D9A838",
"(  c #DCB539",
")  c #D5A92E",
"_  c #E6A224",
"`  c #E9A525",
"'  c #EAAC24",
"]  c #E5A32C",
"[  c #EAA52C",
"{  c #E6A92E",
"}  c #EAAB2D",
"|  c #F1AC2E",
" . c #EDB22D",
".. c #E9B329",
"X. c #F0B52D",
"o. c #F2BB2C",
"O. c #F3B826",
"+. c #E6A532",
"@. c #E6AA33",
"#. c #EAAC34",
"$. c #EAAD39",
"%. c #E7A738",
"&. c #EDB332",
"*. c #EDB33B",
"=. c #EDBA3C",
"-. c #E6B636",
";. c #F1B633",
":. c #F2BB35",
">. c #F1BB3C",
",. c #FABC3D",
"<. c #F5B939",
"1. c #F0AF36",
"2. c #FCCD34",
"3. c #F5C33A",
"4. c #F9C53A",
"5. c #FBCB3D",
"6. c #F5C337",
"7. c #FED13E",
"8. c #FDD137",
"9. c #F6C22C",
"0. c #CB8E4C",
"q. c #D79D48",
"w. c #CD995E",
"e. c #D19C58",
"r. c #E19F40",
"t. c #CCAE49",
"y. c #D7A747",
"u. c #D9B646",
"i. c #D9B75B",
"p. c #DAA957",
"a. c #E4A443",
"s. c #E3A947",
"d. c #ECB542",
"f. c #EDBA43",
"g. c #EDBB4C",
"h. c #E6B546",
"j. c #F2BE41",
"k. c #F2BD4C",
"l. c #E5AC57",
"z. c #EAB356",
"x. c #EEBD53",
"c. c #EABC5C",
"v. c #F1BA59",
"b. c #D09E67",
"n. c #D8A96A",
"m. c #DEB96D",
"M. c #DDB876",
"N. c #E6AC63",
"B. c #E2A86A",
"V. c #EBB462",
"C. c #EBB56A",
"Z. c #E8B668",
"A. c #E4AD72",
"S. c #ECBB7B",
"D. c #E9B876",
"F. c #F0BD6D",
"G. c #EAC347",
"H. c #F5C343",
"J. c #FCC643",
"K. c #F6C943",
"L. c #F9CB45",
"P. c #F4CA48",
"I. c #FACC49",
"U. c #F3C14B",
"Y. c #FED343",
"T. c #FFDA45",
"R. c #FDD34C",
"E. c #FEDA4D",
"W. c #EEC154",
"Q. c #F0C55B",
"!. c #F3C856",
"~. c #FDD552",
"^. c #FEDA53",
"/. c #FEDC5B",
"(. c #F7D256",
"). c #FFE253",
"_. c #FFE35E",
"`. c #D5C279",
"'. c #EEC36A",
"]. c #ECC464",
"[. c #F2CC63",
"{. c #F4C768",
"}. c #EED36A",
"|. c #FEDE63",
" X c #F5D36D",
".X c #FCDC6B",
"XX c #FAD368",
"oX c #E6C676",
"OX c #F6CC76",
"+X c #F5D572",
"@X c #F6DC7C",
"#X c #FDDC7B",
"$X c #F8D877",
"%X c #FEE16C",
"&X c #FFE865",
"*X c #FEE574",
"=X c #FDE67C",
"-X c #FEE97F",
";X c #F6E07F",
":X c #FFF47B",
">X c #EABB86",
",X c #E8BE97",
"<X c #E7CA86",
"1X c #F8DE83",
"2X c #EBC59D",
"3X c #EDC392",
"4X c #F1CA92",
"5X c #F3D69A",
"6X c #F0D087",
"7X c #F9E284",
"8X c #FEEA83",
"9X c #F9E68A",
"0X c #FDEC8B",
"qX c #F6E487",
"wX c #FFF684",
"eX c #FFF68B",
"rX c #FDED92",
"tX c #F9E798",
"yX c #FEF195",
"uX c #FEF39C",
"iX c #FFFE9D",
"pX c #FFFB96",
"aX c #EEE09D",
"sX c #EECAA3",
"dX c #F1CFA5",
"fX c #F3D4A8",
"gX c #FDE5A3",
"hX c #FEE9A6",
"jX c #FEF5A1",
"kX c #FFFCA4",
"lX c #FDF5AA",
"zX c #FFFEAA",
"xX c #FCF1BA",
"cX c None",
/* pixels */
"cXcXcXcXcXcXcXcXcXcXcXcXcXcXcXcXcXcXcXcXcXcXcXcXcXcXcXcXcXcXcXcXcXcXcXcXcXcXcXcXcXcXcXcXcXcXcXcXcXcXcXcXcXcXcXcXcXcXcXcXcXcXcXcX",
"cXcXcXcXcXcXcXcXcXcXcXcXcXcXcXcXcXcXcXcXcXcXcXcXcXcXcXjXkXuXuXyXyX0X8X8X8XcXcXcXcXcXcXcXcXcXcXcXcXcXcXcXcXcXcXcXcXcXcXcXcXcXcXcX",
"cXcXcXcXcXcXcXcXcXcXcXcXcXcXcXcXcXcXcXcXcXcXcXjXjXzXzXzXkXiXpXyXeX0XwXwXwX:X*X%X&XcXcXcXcXcXcXcXcXcXcXcXcXcXcXcXcXcXcXcXcXcXcXcX",
"cXcXcXcXcXcXcXcXcXcXcXcXcXcXcXcXcXcXcXcXjXjXzXzXkXuXuXyXrXrX8X8X8X=X=X*X%X|.&X&X&X&X^.R.cXcXcXcXcXcXcXcXcXcXcXcXcXcXcXcXcXcXcXcX",
"cXcXcXcXcXcXcXcXcXcXcXcXcXcXcXcXcXcXjXzXzXjXjXuXuXyXrX0X8X8X-X=X*X*X*X%X|.|././.R.R.E.).R.R.cXcXcXcXcXcXcXcXcXcXcXcXcXcXcXcXcXcX",
"cXcXcXcXcXcXcXcXcXcXcXcXcXcXcXcXjXzXzXjXjXuXuXyXrX0X0X8X8X-X*X*X*X.X|.|././.^.~.$X/.R.R.R.E.R.P.cXcXcXcXcXcXcXcXcXcXcXcXcXcXcXcX",
"cXcXcXcXcXcXcXcXcXcXcXcXcXcXcXjXzXjXjXuXlXlXrX0X0X8X8X=X*X*X%X.X|.|././.^.~.Y..X#XW.P.I.I.I.P.R.K.cXcXcXcXcXcXcXcXcXcXcXcXcXcXcX",
"cXcXcXcXcXcXcXcXcXcXcXcXcXjXzXjXjXuXuXyXtXuXtXqX-X=X*X*X%X%X%X&X/./.^.~.R.R.R.1XR.J P.I.P.J.P.K.J.I.=.cXcXcXcXcXcXcXcXcXcXcXcXcX",
"cXcXcXcXcXcXcXcXcXcXcXcXjXzXjXuXuXyXrX0XrXqX8XqX;X*X%X%X|.|././.^.^.R.R.~.Y.XX$X-.y.R.K.J.H.H.H.H.j.Y.*.cXcXcXcXcXcXcXcXcXcXcXcX",
"cXcXcXcXcXcXcXcXcXcXcXjXzXuXuXyXyX0X0X-XrX;X`.:X;X.X|./././.^.~.R.R.R.R.I.L.$X(.J :.L.K.H.H.H.H.j.j.j.J.*.cXcXcXcXcXcXcXcXcXcXcX",
"cXcXcXcXcXcXcXcXcXcXjXkXuXyXyX0X0X8X-X=XqX=X=X}..X}.(./.^.~.R.~.R.R.I.R.I.I.OXJ.{. XH.H.j.j.j.j.>.j.>.*.j.$.cXcXcXcXcXcXcXcXcXcX",
"cXcXcXcXcXcXcXcXcXuXkXyXrX0X0X8X-X=X*X%X;X*Xu.t.t.t.(.^.R.R.R.~.I.I.I.I.K.I.! J =.W.y.j.j.j.j.>.=.>.*.*.*.,.Q cXcXcXcXcXcXcXcXcX",
"cXcXcXcXcXcXcXcXpXiXrX0X8X8X-X=X*X*X%X%X+Xi.u./.^.E.~.R.R.R.I.I.I.I.I.P.J.H.I.=.J N @.j.j.f.>.>.*.*.*.*.$.1.,.G cXcXcXcXcXcXcXcX",
"cXcXcXcXcXcXcXyXiXrX8X8X8X=X*X*X%X%X|.%X(.G.(.~.E.R.R.R.I.I.I.I.I.I.P.H.H.H.H.j.J.j.>.d.>.*.*.*.$.*.$.$.#.#.#.<.b cXcXcXcXcXcXcX",
"cXcXcXcXcXcXcXpX8X8X8X=X*X%X%X%X|.|./././.^.R.R.R.R.I.I.I.I.P.P.K.H.H.H.H.j.j.j.=.>.>.>.*.*.*.*.&.$.$.#.#.@.+.+.$.cXcXcXcXcXcXcX",
"cXcXcXcXcXcX0X8X-X-X*X*X%X%X%X/.|./.^.~.~.~.~.~.R.I.I.I.J.I.P.K.H.H.H.j.j.j.j.j.j.d.d.*.=.*.$.$.#.$.@.} @.+.+.+.[ S cXcXcXcXcXcX",
"cXcXcXcXcX8XeX=X*X*X%X%X&X/././.7.8.8.8.2.2.2.2.L.I.K.I.H.H.J.H.j.H.j.j.>.>.*.j ..O.h ' ' h h } #.%.+.+.+.] U +.U | 1 cXcXcXcXcX",
"cXcXcXcXcX=X=X&X%X%X%X/././.^.R.tXhXhXhXhXgXgXgX$X3.H.H.P.H.j.j.j.>.d.>.>.*.k.5X4X4X4X4X4X4X4Xl.` +.+.+.T T T U P T D cXcXcXcXcX",
"cXcXcXcX*X:X%X*X%X/././.~.~.R.~.xXlXlXlXlXjXuXuXaX-.K.H.H.j.j.j.>.>.>.>.d.s 4X5XW.].Q.c.x.z.v.K G +.] T T Y t P T U Y , cXcXcXcX",
"cXcXcXcX%X.X|.rX X(.^.~.R.R.~.L.aXkXuXuXrXtX9XqX9Xi.:.H.j.j.j.>.>.>.*.*.*.&.fXU.f.j.d.*.-.@.} z G ] U I t T B.>Xq.e Y n cXcXcXcX",
"cXcXcX|.&X^.=X*Xt.G.T.R.R.R.R.4.oXlXuXyXtX9X9X9XqXoX@.H.>.>.>.*.*.*.*.*.s S.5X .g.d.d.*.$.$.G : +.U U r.A.>XN.T < x P P # cXcXcX",
"cXcXcX|.&X/.1X^.|.#X X~.I.I.I.I.h.aXrX9X9X9X7X7X@X+Xy.=.=.>.*.*.*.$.$.d.a dX'.*.d.$.$.$.@.#.w b U U G A.N.e > # 1 m e P , cXcXcX",
"cXcXcX_.E.XX*X-.^ P.XX$XU.I.I.I.6.<XrXqX7X1X@X@X$X$Xi.#.d.*.;.*.$.$.#.' z.fX} d.*.#.#.+.[ _ % U U D D + > : 1 m m m m m m cXcXcX",
"cXcX^.).R.P.t.W h.W ) ~ ^ P.P.H.3.i.aX7X1X@X$X$X+X+X].Q <.$.$.$.$.$.$.y 3X<Xd d.#.@.} ] ` v 1 U D D Z n 1 m m m m m m m Y # cXcX",
"cXcX~.^.~.R.G.P.R.I.G.( H.J.H.H.H.-.<X7X$X$X+X+X X[.[.y.#.*.#.@.#.@.+.] dXd.$.%.[ { ` _ g = S Z Z D m m m m m m m m m m P , cXcX",
"cXcXR.R.I.I.I.I.J.K.I.I.H.H.j.j.j.o.m.1X+X+X}. X].[.(.p.U $.#.%.+.+.y D.4Xa $.[ [ ` Y _ A & P m m m m m m m m m m m m Z P x cXcX",
"cXcXE.I.I.I.P.I.J.H.j.k.H.j.>.d.>.>.y.<X X X X[.[.Q.Q.x.K @.+.+.+.%.y 2XV.f [ _ _ i _ | w q m m m m e m m m Z m m Z m Z P Z cXcX",
"cXcXE.I.I.H.J.H.H.H.H.j.j.j.>.>.=.j. .M.+X[.[.Q.Q.W.x.W.W U %.+.] i l.sXa { _ Y _ ` ` ` % n m n m m m m Z m e Z Z Z Z Z Z Y @ cX",
"cXH.E.J.K.K.K.j.H.j.j.j.>.>.>.>.*.*. .p.oX!.Q.W.W.g.g.k.s.C +.U T t >X>Xy ` Y _ ' ` | H & P e m m m Z m Z Z Z Z Z Z Z A Z Y # cX",
"cXH.R.J.H.j.j.j.j.>.>.d.>.*.*.*.*.*.*.] D.[.W.W.g.g.d.h.d.B U T U P sX+.i _ ` ' } } X.3 q m m m m m m Z Z Z Z Z Z Z A A I [ * cX",
"cXf.R.H.H.j.j.j.>.>.*.>.*.*.*.&.$.#.$.` n.'.f.g.g.d.d.*.*.F S T 0 A.3Xy [ ` [ } } X.] & m m m Z m Z Z Z Z Z Z Z A A A I U [ = cX",
"cX=.L.j.j.j.>.>.>.>.*.*.$.*.$.$.#.#.%.} y.D.f.g.d.=.$.$.@.] x G 9 ,XN.a } ' | } } :.V , P m m Z Z Z Z Z Z Z A A I G U I Y } = cX",
"cX*.J.d.>.>.=.*.*.*.*.&.$.$.#.#.@.@.+.+.r n.x.*.*.$.#.} [ [ q P G 2Xh [ } } &.;.:.&.* m Z Z Z Z Z Z Z A A A I I G _ _ _ ] | = cX",
"cX*.J.<.=.>.*.*.*.&.$.$.#.#.#.@.+.+.+.+._ e.Z. .%.#.} [ _ _ C > B.3Xa $. .X.&.;.>.Q - P m Z Z Z Z Z A A A A U U U ] ] ] ] #.= cX",
"cX@.J.>.*.*.*.*.$.$.$.#.#.+.+.+.+.] +.T ] Z n.*.@.{ ` _ _ _ { > ,XF.a &. .*.:.:.3.c x Z Z Z Z Z A A A U U ] U { ] ] { ] [ X.* cX",
"cX/ 4.*.*.$.$.#.$.@.@.+.%.+.+.+.+.U U U T 0 w.l.g _ I _ _ ` } > ,X*.| ;.:.:.:.3.-.= P Z Z Z A A A A U U U u ] g g ` @.{ #.;.$ cX",
"cXcX,.*.#.$.#.$.#.%.+.+.+.] T U U U U D D P L A.d Y _ ` ` } l n.2Xl =.=.:.3.3.L.J , I Z A A A A U _ _ ] I D.S.Z.l.%.' } | ;.@ cX",
"cXcX<.$.$.#.$.+.[ f g ] +.U U U U U G D D D 9 b.a.f ` } } } j v.].k >.=.3.3.K.3.4 Z A I A G _ U U ] ] f V.C.u s.v.'.V.} ;.| cXcX",
"cXcX+.#.@.+.f _ a.N.S.a.I T D U D P D D P D 9 0.l.a } | } &.&.X.O.>.3.3.3.5.Y.( : Y A A U U _ ] ] ] { ` V._ : 2 8 E K E :.R cXcX",
"cXcXF 1.+.%.C.S.S.C.s.x S U D D D D D m m m m q n.| }  .&.o.:.=.>.3.3.5.K.P.R.N n _ U U ] _ ] ] ] { { } / #.Z.Z.u.B M  .,.c cXcX",
"cXcXb 1.] s.A.%.e 8 - z D A D D D m m m m m m 9 w.z.h &.:.:.:.3.3.3.L.L.K.T.G.4 _ G ] ] ] ] ] } [ } } #.E c { f.{.F.X.;.4.$ cXcX",
"cXcXcX| +.A + - : b Z U D D Z Z m m m m m m m e L A.O.=.:.:.3.3.3.L.P.Y.L.E.^ w { _ _ ] ] { ` #.#.#. . .&.R V w r H R 4.;.cXcXcX",
"cXcXcXS +.T D D U P D D m m m m m m m m m m m D 9 b.H.o.3.3.3.K.L.P.Y.R.R.E.5 I ] ] +.{ { } } } } &.&.&.&.:.:.*.Q R :.4.B cXcXcX",
"cXcXcXz [ D U D D D m m m m m m m m m m Z Z m m u 0.'.9.H.K.P.Y.Y.Y.R.E.).G.z } { { { } #.} #.&.&.&.&.&.;.;.:.:.6.6.6.4.$ cXcXcX",
"cXcXcXcXY U Z Z Z Z m m e m m m m m Z m m Z m Z Z e m.L.5.P.Y.P.R.E.E.E.).5 G } [ } } } &.#.&.&.&.&.:.&.:.:.:.:.6.:.4.-.cXcXcXcX",
"cXcXcXcX, Y Z Z m m m m m m m Z m Z m Z Z Z Z Z Z 0 w.[.8.P.Y.R.E.E.E.E.(.7 } { } @.#. . .&.&.&.&.:.:.:.:.,.6.6.3.4.5.* cXcXcXcX",
"cXcXcXcXcXP m m m m m m m m n m Z Z Z Z Z Z Z P A I K oXY.E.E.E.E.E.E.).^ M &.{ #.&.#.&.&.&.:.;.:.:.:.6.:.3.6.3.3.5.-.cXcXcXcXcX",
"cXcXcXcXcX# P m m m m m m Z Z m Z Z Z Z Z A A A A R 0 n.(.E.E.E.E.E.E.E.5 ..&.&. .&.;.&.:.;.:.:.>.:.:.3.3.3.4.4.5.7.$ cXcXcXcXcX",
"cXcXcXcXcXcXx m m m Z m Z m Z Z Z Z Z Z A U A U U G g e.$XT.E.E.E.E.E.G.v ;. . .&.;.*.X.o.=.:.6.6.6.3.3.4.4.5.5.Y.) cXcXcXcXcXcX",
"cXcXcXcXcXcX@ P P m m m Z Z Z Z Z A A A A I A ] _ _ [ r oX).E.).E.).).J { ;.&.=.:.:.:.W.U.o.3.6.3.4.4.4.4.5.5.7.3.X cXcXcXcXcXcX",
"cXcXcXcXcXcXcX% P Z Z Z Z Z Z Z A A Y U i U %._ ] { @.` y.u.( u.u.( ( N o.-.*.X.k :.=.OXg.&.3.4.3.4.4.5.5.5.5.7.@ cXcXcXcXcXcXcX",
"cXcXcXcXcXcXcXcX, P Z Z Z Z A I A P T u a.>Xl.G { [ { } { w c c 5 5 V #.:.;.o.k.OX:.o.p 9.( 4.4.4.5.5.5.5.5.T.N cXcXcXcXcXcXcXcX",
"cXcXcXcXcXcXcXcXcXq I A I A U I U T y s.>X$.r V } [ #.} &.;.;.:.6.:.:.:.=.:.o.x.Q...OXm.G.-.6.5.7.5.5.Y.5.T.) cXcXcXcXcXcXcXcXcX",
"cXcXcXcXcXcXcXcXcXcXn Y A U G _ +.y l.<X{ i F M #.#.} &.} &.&.&.=.o.*.:.:.6.4...h U.].L.Y.2.( 5.5.7.7.Y.T.~   cXcXcXcXcXcXcXcXcX",
"cXcXcXcXcXcXcXcXcXcXcXn ] U ] ] g z.<Xf 7 l.r F  .#. .&.*. .:.;.:.:.:.6.6.3.3.5.^ 3.L...( 8.( 3.Y.7.Y.T.!   cXcXcXcXcXcXcXcXcXcX",
"cXcXcXcXcXcXcXcXcXcXcXcXx } ] ] [ q.n 2 q.v.r R ;.&.&.&.:.:.:.:.:.:.:.6.3.3.3.3.6.( 7.! W ! ^ 3.Y.T.T.V cXcXcXcXcXcXcXcXcXcXcXcX",
"cXcXcXcXcXcXcXcXcXcXcXcXcX* | } { g B A d.x.r Q ;. .*.:.:.:.:.6.3.3.3.3.4.4.5.5.5.( 3.W 8.5.5.Y.E.Y.; cXcXcXcXcXcXcXcXcXcXcXcXcX",
"cXcXcXcXcXcXcXcXcXcXcXcXcXcX@ ] ;.&.;.&.#.N c -.:.:.:.:.:.:.3.6.3.4.4.3.4.5.5.5.7.3.W 6.Y.Y.T.T.-.o cXcXcXcXcXcXcXcXcXcXcXcXcXcX",
"cXcXcXcXcXcXcXcXcXcXcXcXcXcXcXcX3 ;.:.;.&.&.@.:.:.:.:.3.3.3.3.4.4.4.4.5.5.5.7.7.Y.Y.Y.Y.T.).5.6   cXcXcXcXcXcXcXcXcXcXcXcXcXcXcX",
"cXcXcXcXcXcXcXcXcXcXcXcXcXcXcXcXcXo z ;.,.9.:.:.:.:.:.6.3.3.4.4.4.5.5.7.5.7.5.Y.Y.Y.T.T.P.6 . cXcXcXcXcXcXcXcXcXcXcXcXcXcXcXcXcX",
"cXcXcXcXcXcXcXcXcXcXcXcXcXcXcXcXcXcXcXo 4 } 4.4.4.4.4.3.4.4.4.5.5.7.5.7.Y.T.Y.T.E.T.=.6 . cXcXcXcXcXcXcXcXcXcXcXcXcXcXcXcXcXcXcX",
"cXcXcXcXcXcXcXcXcXcXcXcXcXcXcXcXcXcXcXcXcXcX@ 5 { 3.5.7.5.7.7.7.Y.7.T.T.T.Y.5.( 6 O cXcXcXcXcXcXcXcXcXcXcXcXcXcXcXcXcXcXcXcXcXcX",
"cXcXcXcXcXcXcXcXcXcXcXcXcXcXcXcXcXcXcXcXcXcXcXcXcXX @ 4 5 J ) ~ ~ ) J 5 6 O . cXcXcXcXcXcXcXcXcXcXcXcXcXcXcXcXcXcXcXcXcXcXcXcXcX",
"cXcXcXcXcXcXcXcXcXcXcXcXcXcXcXcXcXcXcXcXcXcXcXcXcXcXcXcXcXcXcXcXcXcXcXcXcXcXcXcXcXcXcXcXcXcXcXcXcXcXcXcXcXcXcXcXcXcXcXcXcXcXcXcX"
};
